<svg width="32" height="32" viewBox="0 0 32 32" fill="none" xmlns="http://www.w3.org/2000/svg">
<circle cx="16" cy="16" r="16" fill="#4A91DE"/>
<path fill-rule="evenodd" clip-rule="evenodd" d="M9.5 8C9.5 6.89543 10.3954 6 11.5 6H20.5C21.6046 6 22.5 6.89543 22.5 8V26C22.5 27.1046 21.6046 28 20.5 28H11.5C10.3954 28 9.5 27.1046 9.5 26V8ZM17 26C17 26.5523 16.5523 27 16 27C15.4477 27 15 26.5523 15 26C15 25.4477 15.4477 25 16 25C16.5523 25 17 25.4477 17 26ZM13 7C12.7239 7 12.5 7.22386 12.5 7.5C12.5 7.77614 12.7239 8 13 8H19C19.2761 8 19.5 7.77614 19.5 7.5C19.5 7.22386 19.2761 7 19 7H13Z" fill="white"/>
<rect x="10.5" y="9" width="11" height="15" fill="#4A91DE"/>
</svg>
